<mxfile host="app.diagrams.net" agent="Mozilla/5.0 (Windows NT 10.0; Win64; x64) AppleWebKit/537.36 (KHTML, like Gecko) Chrome/135.0.0.0 Safari/537.36" scale="1" border="0" version="26.1.3">
  <diagram id="C5RBs43oDa-KdzZeNtuy" name="Page-1">
    <mxGraphModel dx="1032" dy="1615" grid="1" gridSize="10" guides="1" tooltips="1" connect="1" arrows="1" fold="1" page="1" pageScale="1" pageWidth="827" pageHeight="1169" math="0" shadow="0">
      <root>
        <mxCell id="WIyWlLk6GJQsqaUBKTNV-0" />
        <mxCell id="WIyWlLk6GJQsqaUBKTNV-1" parent="WIyWlLk6GJQsqaUBKTNV-0" />
        <mxCell id="TQMWpj2GuU2XblvTJpzS-42" value="" style="edgeStyle=orthogonalEdgeStyle;rounded=0;orthogonalLoop=1;jettySize=auto;html=1;" parent="WIyWlLk6GJQsqaUBKTNV-1" source="TQMWpj2GuU2XblvTJpzS-37" target="TQMWpj2GuU2XblvTJpzS-39" edge="1">
          <mxGeometry relative="1" as="geometry" />
        </mxCell>
        <mxCell id="TQMWpj2GuU2XblvTJpzS-155" value="false" style="edgeLabel;html=1;align=center;verticalAlign=middle;resizable=0;points=[];" parent="TQMWpj2GuU2XblvTJpzS-42" vertex="1" connectable="0">
          <mxGeometry x="-0.0935" y="-2" relative="1" as="geometry">
            <mxPoint as="offset" />
          </mxGeometry>
        </mxCell>
        <mxCell id="TQMWpj2GuU2XblvTJpzS-51" value="" style="edgeStyle=orthogonalEdgeStyle;rounded=0;orthogonalLoop=1;jettySize=auto;html=1;" parent="WIyWlLk6GJQsqaUBKTNV-1" source="BORtTbWCgBriATxm2zL_-38" target="TQMWpj2GuU2XblvTJpzS-49" edge="1">
          <mxGeometry relative="1" as="geometry" />
        </mxCell>
        <mxCell id="TQMWpj2GuU2XblvTJpzS-150" value="true" style="edgeLabel;html=1;align=center;verticalAlign=middle;resizable=0;points=[];" parent="TQMWpj2GuU2XblvTJpzS-51" vertex="1" connectable="0">
          <mxGeometry x="0.0714" y="-1" relative="1" as="geometry">
            <mxPoint x="1" y="-87" as="offset" />
          </mxGeometry>
        </mxCell>
        <mxCell id="BORtTbWCgBriATxm2zL_-57" value="true" style="edgeLabel;html=1;align=center;verticalAlign=middle;resizable=0;points=[];" parent="TQMWpj2GuU2XblvTJpzS-51" vertex="1" connectable="0">
          <mxGeometry x="-0.632" relative="1" as="geometry">
            <mxPoint as="offset" />
          </mxGeometry>
        </mxCell>
        <mxCell id="TQMWpj2GuU2XblvTJpzS-37" value="Apakah input&amp;nbsp;&lt;div&gt;pengguna adalah 1?&lt;/div&gt;" style="rhombus;whiteSpace=wrap;html=1;" parent="WIyWlLk6GJQsqaUBKTNV-1" vertex="1">
          <mxGeometry x="344" y="840" width="140" height="140" as="geometry" />
        </mxCell>
        <mxCell id="TQMWpj2GuU2XblvTJpzS-38" value="" style="edgeStyle=orthogonalEdgeStyle;rounded=0;orthogonalLoop=1;jettySize=auto;html=1;" parent="WIyWlLk6GJQsqaUBKTNV-1" target="TQMWpj2GuU2XblvTJpzS-37" edge="1">
          <mxGeometry relative="1" as="geometry">
            <mxPoint x="960" y="760" as="sourcePoint" />
          </mxGeometry>
        </mxCell>
        <mxCell id="TQMWpj2GuU2XblvTJpzS-43" value="" style="edgeStyle=orthogonalEdgeStyle;rounded=0;orthogonalLoop=1;jettySize=auto;html=1;" parent="WIyWlLk6GJQsqaUBKTNV-1" source="TQMWpj2GuU2XblvTJpzS-39" target="TQMWpj2GuU2XblvTJpzS-40" edge="1">
          <mxGeometry relative="1" as="geometry" />
        </mxCell>
        <mxCell id="TQMWpj2GuU2XblvTJpzS-156" value="false" style="edgeLabel;html=1;align=center;verticalAlign=middle;resizable=0;points=[];" parent="TQMWpj2GuU2XblvTJpzS-43" vertex="1" connectable="0">
          <mxGeometry x="-0.0111" y="-2" relative="1" as="geometry">
            <mxPoint as="offset" />
          </mxGeometry>
        </mxCell>
        <mxCell id="TQMWpj2GuU2XblvTJpzS-68" value="" style="edgeStyle=orthogonalEdgeStyle;rounded=0;orthogonalLoop=1;jettySize=auto;html=1;" parent="WIyWlLk6GJQsqaUBKTNV-1" source="TQMWpj2GuU2XblvTJpzS-39" edge="1">
          <mxGeometry relative="1" as="geometry">
            <mxPoint x="693" y="1040" as="targetPoint" />
          </mxGeometry>
        </mxCell>
        <mxCell id="TQMWpj2GuU2XblvTJpzS-151" value="true" style="edgeLabel;html=1;align=center;verticalAlign=middle;resizable=0;points=[];" parent="TQMWpj2GuU2XblvTJpzS-68" vertex="1" connectable="0">
          <mxGeometry x="0.1667" y="-2" relative="1" as="geometry">
            <mxPoint y="-1" as="offset" />
          </mxGeometry>
        </mxCell>
        <mxCell id="TQMWpj2GuU2XblvTJpzS-39" value="Apakah input&amp;nbsp;&lt;div&gt;pengguna adalah 2?&lt;/div&gt;" style="rhombus;whiteSpace=wrap;html=1;" parent="WIyWlLk6GJQsqaUBKTNV-1" vertex="1">
          <mxGeometry x="623" y="840" width="140" height="140" as="geometry" />
        </mxCell>
        <mxCell id="TQMWpj2GuU2XblvTJpzS-44" value="" style="edgeStyle=orthogonalEdgeStyle;rounded=0;orthogonalLoop=1;jettySize=auto;html=1;" parent="WIyWlLk6GJQsqaUBKTNV-1" source="TQMWpj2GuU2XblvTJpzS-40" target="TQMWpj2GuU2XblvTJpzS-41" edge="1">
          <mxGeometry relative="1" as="geometry" />
        </mxCell>
        <mxCell id="TQMWpj2GuU2XblvTJpzS-157" value="false" style="edgeLabel;html=1;align=center;verticalAlign=middle;resizable=0;points=[];" parent="TQMWpj2GuU2XblvTJpzS-44" vertex="1" connectable="0">
          <mxGeometry x="-0.0388" y="-1" relative="1" as="geometry">
            <mxPoint as="offset" />
          </mxGeometry>
        </mxCell>
        <mxCell id="BORtTbWCgBriATxm2zL_-46" value="" style="edgeStyle=orthogonalEdgeStyle;rounded=0;orthogonalLoop=1;jettySize=auto;html=1;" parent="WIyWlLk6GJQsqaUBKTNV-1" source="TQMWpj2GuU2XblvTJpzS-40" target="BORtTbWCgBriATxm2zL_-44" edge="1">
          <mxGeometry relative="1" as="geometry" />
        </mxCell>
        <mxCell id="BORtTbWCgBriATxm2zL_-70" value="true" style="edgeLabel;html=1;align=center;verticalAlign=middle;resizable=0;points=[];" parent="BORtTbWCgBriATxm2zL_-46" vertex="1" connectable="0">
          <mxGeometry x="0.288" relative="1" as="geometry">
            <mxPoint as="offset" />
          </mxGeometry>
        </mxCell>
        <mxCell id="TQMWpj2GuU2XblvTJpzS-40" value="Apakah input&amp;nbsp;&lt;div&gt;pengguna adalah 3?&lt;/div&gt;" style="rhombus;whiteSpace=wrap;html=1;" parent="WIyWlLk6GJQsqaUBKTNV-1" vertex="1">
          <mxGeometry x="904" y="840" width="140" height="140" as="geometry" />
        </mxCell>
        <mxCell id="TQMWpj2GuU2XblvTJpzS-94" value="" style="edgeStyle=orthogonalEdgeStyle;rounded=0;orthogonalLoop=1;jettySize=auto;html=1;" parent="WIyWlLk6GJQsqaUBKTNV-1" source="TQMWpj2GuU2XblvTJpzS-45" target="TQMWpj2GuU2XblvTJpzS-92" edge="1">
          <mxGeometry relative="1" as="geometry" />
        </mxCell>
        <mxCell id="TQMWpj2GuU2XblvTJpzS-154" value="true" style="edgeLabel;html=1;align=center;verticalAlign=middle;resizable=0;points=[];" parent="TQMWpj2GuU2XblvTJpzS-94" vertex="1" connectable="0">
          <mxGeometry x="0.2143" relative="1" as="geometry">
            <mxPoint y="-1" as="offset" />
          </mxGeometry>
        </mxCell>
        <mxCell id="TQMWpj2GuU2XblvTJpzS-100" value="" style="edgeStyle=orthogonalEdgeStyle;rounded=0;orthogonalLoop=1;jettySize=auto;html=1;" parent="WIyWlLk6GJQsqaUBKTNV-1" source="TQMWpj2GuU2XblvTJpzS-45" target="TQMWpj2GuU2XblvTJpzS-98" edge="1">
          <mxGeometry relative="1" as="geometry" />
        </mxCell>
        <mxCell id="TQMWpj2GuU2XblvTJpzS-159" value="false" style="edgeLabel;html=1;align=center;verticalAlign=middle;resizable=0;points=[];" parent="TQMWpj2GuU2XblvTJpzS-100" vertex="1" connectable="0">
          <mxGeometry x="-0.1743" y="-2" relative="1" as="geometry">
            <mxPoint as="offset" />
          </mxGeometry>
        </mxCell>
        <mxCell id="TQMWpj2GuU2XblvTJpzS-45" value="Apakah input&amp;nbsp;&lt;div&gt;pengguna adalah 5?&lt;/div&gt;" style="rhombus;whiteSpace=wrap;html=1;" parent="WIyWlLk6GJQsqaUBKTNV-1" vertex="1">
          <mxGeometry x="1720" y="840" width="140" height="140" as="geometry" />
        </mxCell>
        <mxCell id="TQMWpj2GuU2XblvTJpzS-58" value="" style="group" parent="WIyWlLk6GJQsqaUBKTNV-1" vertex="1" connectable="0">
          <mxGeometry x="559" y="1040" width="268" height="320" as="geometry" />
        </mxCell>
        <mxCell id="TQMWpj2GuU2XblvTJpzS-65" value="" style="group" parent="TQMWpj2GuU2XblvTJpzS-58" vertex="1" connectable="0">
          <mxGeometry x="44" width="224" height="80" as="geometry" />
        </mxCell>
        <mxCell id="TQMWpj2GuU2XblvTJpzS-66" value="Print Tabel&amp;nbsp;&lt;div&gt;Koleksi berdasarkan array Koleksi menggunakan fungsi lihat_koleksi&lt;/div&gt;" style="shape=parallelogram;perimeter=parallelogramPerimeter;whiteSpace=wrap;html=1;fixedSize=1;" parent="TQMWpj2GuU2XblvTJpzS-65" vertex="1">
          <mxGeometry width="180" height="80" as="geometry" />
        </mxCell>
        <mxCell id="TQMWpj2GuU2XblvTJpzS-67" value="" style="endArrow=classic;html=1;rounded=0;exitX=0.9;exitY=1;exitDx=0;exitDy=0;exitPerimeter=0;" parent="TQMWpj2GuU2XblvTJpzS-65" source="TQMWpj2GuU2XblvTJpzS-66" edge="1">
          <mxGeometry width="50" height="50" relative="1" as="geometry">
            <mxPoint x="66" y="160" as="sourcePoint" />
            <mxPoint x="206" y="80" as="targetPoint" />
          </mxGeometry>
        </mxCell>
        <mxCell id="TQMWpj2GuU2XblvTJpzS-91" value="" style="group" parent="WIyWlLk6GJQsqaUBKTNV-1" vertex="1" connectable="0">
          <mxGeometry x="1710" y="1040" width="224" height="80" as="geometry" />
        </mxCell>
        <mxCell id="BORtTbWCgBriATxm2zL_-19" value="" style="group" parent="TQMWpj2GuU2XblvTJpzS-91" vertex="1" connectable="0">
          <mxGeometry x="-10" width="216" height="80" as="geometry" />
        </mxCell>
        <mxCell id="TQMWpj2GuU2XblvTJpzS-92" value="Print &quot;Kembali ke Beranda&quot;" style="shape=parallelogram;perimeter=parallelogramPerimeter;whiteSpace=wrap;html=1;fixedSize=1;" parent="BORtTbWCgBriATxm2zL_-19" vertex="1">
          <mxGeometry width="180" height="80" as="geometry" />
        </mxCell>
        <mxCell id="TQMWpj2GuU2XblvTJpzS-93" value="" style="endArrow=classic;html=1;rounded=0;exitX=0.9;exitY=1;exitDx=0;exitDy=0;exitPerimeter=0;" parent="BORtTbWCgBriATxm2zL_-19" source="TQMWpj2GuU2XblvTJpzS-92" edge="1">
          <mxGeometry width="50" height="50" relative="1" as="geometry">
            <mxPoint x="76" y="160" as="sourcePoint" />
            <mxPoint x="216" y="80" as="targetPoint" />
          </mxGeometry>
        </mxCell>
        <mxCell id="TQMWpj2GuU2XblvTJpzS-96" value="" style="endArrow=none;html=1;rounded=0;" parent="WIyWlLk6GJQsqaUBKTNV-1" edge="1">
          <mxGeometry width="50" height="50" relative="1" as="geometry">
            <mxPoint x="960" y="760" as="sourcePoint" />
            <mxPoint x="960" y="720" as="targetPoint" />
          </mxGeometry>
        </mxCell>
        <mxCell id="TQMWpj2GuU2XblvTJpzS-97" value="" style="group" parent="WIyWlLk6GJQsqaUBKTNV-1" vertex="1" connectable="0">
          <mxGeometry x="1970" y="870" width="224" height="80" as="geometry" />
        </mxCell>
        <mxCell id="TQMWpj2GuU2XblvTJpzS-98" value="Print &quot;Pilihan tidak&amp;nbsp;&lt;div&gt;ada di menu&quot;&lt;/div&gt;" style="shape=parallelogram;perimeter=parallelogramPerimeter;whiteSpace=wrap;html=1;fixedSize=1;" parent="TQMWpj2GuU2XblvTJpzS-97" vertex="1">
          <mxGeometry x="-10" width="180" height="80" as="geometry" />
        </mxCell>
        <mxCell id="TQMWpj2GuU2XblvTJpzS-99" value="" style="endArrow=classic;html=1;rounded=0;exitX=0.9;exitY=1;exitDx=0;exitDy=0;exitPerimeter=0;" parent="TQMWpj2GuU2XblvTJpzS-97" source="TQMWpj2GuU2XblvTJpzS-98" edge="1">
          <mxGeometry width="50" height="50" relative="1" as="geometry">
            <mxPoint x="66" y="160" as="sourcePoint" />
            <mxPoint x="206" y="80" as="targetPoint" />
          </mxGeometry>
        </mxCell>
        <mxCell id="TQMWpj2GuU2XblvTJpzS-101" value="" style="endArrow=none;html=1;rounded=0;" parent="WIyWlLk6GJQsqaUBKTNV-1" edge="1">
          <mxGeometry width="50" height="50" relative="1" as="geometry">
            <mxPoint x="240" y="1760" as="sourcePoint" />
            <mxPoint x="1640" y="1760" as="targetPoint" />
          </mxGeometry>
        </mxCell>
        <mxCell id="TQMWpj2GuU2XblvTJpzS-104" value="" style="endArrow=none;html=1;rounded=0;exitX=0.5;exitY=1;exitDx=0;exitDy=0;" parent="WIyWlLk6GJQsqaUBKTNV-1" source="TQMWpj2GuU2XblvTJpzS-66" edge="1">
          <mxGeometry width="50" height="50" relative="1" as="geometry">
            <mxPoint x="560" y="1550" as="sourcePoint" />
            <mxPoint x="693" y="1760" as="targetPoint" />
          </mxGeometry>
        </mxCell>
        <mxCell id="TQMWpj2GuU2XblvTJpzS-105" value="" style="endArrow=none;html=1;rounded=0;exitX=0.5;exitY=1;exitDx=0;exitDy=0;" parent="WIyWlLk6GJQsqaUBKTNV-1" source="TQMWpj2GuU2XblvTJpzS-47" edge="1">
          <mxGeometry width="50" height="50" relative="1" as="geometry">
            <mxPoint x="414" y="1360" as="sourcePoint" />
            <mxPoint x="414" y="1760" as="targetPoint" />
          </mxGeometry>
        </mxCell>
        <mxCell id="TQMWpj2GuU2XblvTJpzS-106" value="" style="endArrow=none;html=1;rounded=0;" parent="WIyWlLk6GJQsqaUBKTNV-1" edge="1">
          <mxGeometry width="50" height="50" relative="1" as="geometry">
            <mxPoint x="240" y="1760" as="sourcePoint" />
            <mxPoint x="240" y="560" as="targetPoint" />
          </mxGeometry>
        </mxCell>
        <mxCell id="TQMWpj2GuU2XblvTJpzS-107" value="" style="endArrow=classic;html=1;rounded=0;" parent="WIyWlLk6GJQsqaUBKTNV-1" edge="1">
          <mxGeometry width="50" height="50" relative="1" as="geometry">
            <mxPoint x="240" y="560" as="sourcePoint" />
            <mxPoint x="880" y="560" as="targetPoint" />
          </mxGeometry>
        </mxCell>
        <mxCell id="TQMWpj2GuU2XblvTJpzS-108" value="loop" style="edgeLabel;html=1;align=center;verticalAlign=middle;resizable=0;points=[];" parent="TQMWpj2GuU2XblvTJpzS-107" vertex="1" connectable="0">
          <mxGeometry x="0.7544" y="-1" relative="1" as="geometry">
            <mxPoint as="offset" />
          </mxGeometry>
        </mxCell>
        <mxCell id="TQMWpj2GuU2XblvTJpzS-109" value="" style="endArrow=none;html=1;rounded=0;exitX=0.5;exitY=0;exitDx=0;exitDy=0;" parent="WIyWlLk6GJQsqaUBKTNV-1" source="TQMWpj2GuU2XblvTJpzS-98" edge="1">
          <mxGeometry width="50" height="50" relative="1" as="geometry">
            <mxPoint x="1350" y="690" as="sourcePoint" />
            <mxPoint x="2050" y="560" as="targetPoint" />
          </mxGeometry>
        </mxCell>
        <mxCell id="TQMWpj2GuU2XblvTJpzS-110" value="" style="endArrow=classic;html=1;rounded=0;" parent="WIyWlLk6GJQsqaUBKTNV-1" edge="1">
          <mxGeometry width="50" height="50" relative="1" as="geometry">
            <mxPoint x="2050" y="560" as="sourcePoint" />
            <mxPoint x="1040" y="560" as="targetPoint" />
          </mxGeometry>
        </mxCell>
        <mxCell id="TQMWpj2GuU2XblvTJpzS-111" value="loop" style="edgeLabel;html=1;align=center;verticalAlign=middle;resizable=0;points=[];" parent="TQMWpj2GuU2XblvTJpzS-110" vertex="1" connectable="0">
          <mxGeometry x="0.8186" y="2" relative="1" as="geometry">
            <mxPoint as="offset" />
          </mxGeometry>
        </mxCell>
        <mxCell id="TQMWpj2GuU2XblvTJpzS-11" value="" style="edgeStyle=orthogonalEdgeStyle;rounded=0;orthogonalLoop=1;jettySize=auto;html=1;" parent="WIyWlLk6GJQsqaUBKTNV-1" source="TQMWpj2GuU2XblvTJpzS-1" target="TQMWpj2GuU2XblvTJpzS-10" edge="1">
          <mxGeometry relative="1" as="geometry" />
        </mxCell>
        <mxCell id="TQMWpj2GuU2XblvTJpzS-13" value="" style="group" parent="WIyWlLk6GJQsqaUBKTNV-1" vertex="1" connectable="0">
          <mxGeometry x="827" y="200" width="224" height="80" as="geometry" />
        </mxCell>
        <mxCell id="TQMWpj2GuU2XblvTJpzS-10" value="Pengguna menginput&amp;nbsp;&lt;div&gt;nama dan password&lt;/div&gt;" style="shape=parallelogram;perimeter=parallelogramPerimeter;whiteSpace=wrap;html=1;fixedSize=1;" parent="TQMWpj2GuU2XblvTJpzS-13" vertex="1">
          <mxGeometry x="44" width="180" height="80" as="geometry" />
        </mxCell>
        <mxCell id="TQMWpj2GuU2XblvTJpzS-12" value="" style="endArrow=classic;html=1;rounded=0;entryX=0.113;entryY=0.002;entryDx=0;entryDy=0;entryPerimeter=0;" parent="TQMWpj2GuU2XblvTJpzS-13" target="TQMWpj2GuU2XblvTJpzS-10" edge="1">
          <mxGeometry width="50" height="50" relative="1" as="geometry">
            <mxPoint as="sourcePoint" />
            <mxPoint x="160" y="-10" as="targetPoint" />
          </mxGeometry>
        </mxCell>
        <mxCell id="TQMWpj2GuU2XblvTJpzS-14" value="" style="group" parent="WIyWlLk6GJQsqaUBKTNV-1" vertex="1" connectable="0">
          <mxGeometry x="871" y="80" width="206" height="80" as="geometry" />
        </mxCell>
        <mxCell id="TQMWpj2GuU2XblvTJpzS-1" value="Print &quot;Masukkan Nama&quot;&amp;nbsp;&lt;div&gt;dan &quot;Masukkan&amp;nbsp;&lt;/div&gt;&lt;div&gt;Password&quot;&lt;/div&gt;" style="shape=parallelogram;perimeter=parallelogramPerimeter;whiteSpace=wrap;html=1;fixedSize=1;" parent="TQMWpj2GuU2XblvTJpzS-14" vertex="1">
          <mxGeometry width="180" height="80" as="geometry" />
        </mxCell>
        <mxCell id="TQMWpj2GuU2XblvTJpzS-7" value="" style="endArrow=classic;html=1;rounded=0;exitX=0.9;exitY=1;exitDx=0;exitDy=0;exitPerimeter=0;" parent="TQMWpj2GuU2XblvTJpzS-14" source="TQMWpj2GuU2XblvTJpzS-1" edge="1">
          <mxGeometry width="50" height="50" relative="1" as="geometry">
            <mxPoint x="66" y="160" as="sourcePoint" />
            <mxPoint x="206" y="80" as="targetPoint" />
          </mxGeometry>
        </mxCell>
        <mxCell id="TQMWpj2GuU2XblvTJpzS-19" value="" style="edgeStyle=orthogonalEdgeStyle;rounded=0;orthogonalLoop=1;jettySize=auto;html=1;" parent="WIyWlLk6GJQsqaUBKTNV-1" source="TQMWpj2GuU2XblvTJpzS-15" target="TQMWpj2GuU2XblvTJpzS-18" edge="1">
          <mxGeometry relative="1" as="geometry">
            <Array as="points">
              <mxPoint x="1087" y="390" />
              <mxPoint x="1087" y="390" />
            </Array>
          </mxGeometry>
        </mxCell>
        <mxCell id="TQMWpj2GuU2XblvTJpzS-23" value="false" style="edgeLabel;html=1;align=center;verticalAlign=middle;resizable=0;points=[];" parent="TQMWpj2GuU2XblvTJpzS-19" vertex="1" connectable="0">
          <mxGeometry x="-0.0897" y="-1" relative="1" as="geometry">
            <mxPoint as="offset" />
          </mxGeometry>
        </mxCell>
        <mxCell id="TQMWpj2GuU2XblvTJpzS-32" value="" style="edgeStyle=orthogonalEdgeStyle;rounded=0;orthogonalLoop=1;jettySize=auto;html=1;" parent="WIyWlLk6GJQsqaUBKTNV-1" source="TQMWpj2GuU2XblvTJpzS-15" target="TQMWpj2GuU2XblvTJpzS-29" edge="1">
          <mxGeometry relative="1" as="geometry" />
        </mxCell>
        <mxCell id="TQMWpj2GuU2XblvTJpzS-149" value="true" style="edgeLabel;html=1;align=center;verticalAlign=middle;resizable=0;points=[];" parent="TQMWpj2GuU2XblvTJpzS-32" vertex="1" connectable="0">
          <mxGeometry x="-0.3095" relative="1" as="geometry">
            <mxPoint y="-1" as="offset" />
          </mxGeometry>
        </mxCell>
        <mxCell id="TQMWpj2GuU2XblvTJpzS-15" value="Apakah input&amp;nbsp;&lt;div&gt;nama dan password sesuai?&lt;/div&gt;" style="rhombus;whiteSpace=wrap;html=1;" parent="WIyWlLk6GJQsqaUBKTNV-1" vertex="1">
          <mxGeometry x="891" y="320" width="140" height="140" as="geometry" />
        </mxCell>
        <mxCell id="TQMWpj2GuU2XblvTJpzS-16" value="" style="edgeStyle=orthogonalEdgeStyle;rounded=0;orthogonalLoop=1;jettySize=auto;html=1;" parent="WIyWlLk6GJQsqaUBKTNV-1" source="TQMWpj2GuU2XblvTJpzS-10" target="TQMWpj2GuU2XblvTJpzS-15" edge="1">
          <mxGeometry relative="1" as="geometry" />
        </mxCell>
        <mxCell id="TQMWpj2GuU2XblvTJpzS-18" value="Apakah salah&amp;nbsp;&lt;div&gt;input &amp;lt; 3&lt;/div&gt;" style="rhombus;whiteSpace=wrap;html=1;" parent="WIyWlLk6GJQsqaUBKTNV-1" vertex="1">
          <mxGeometry x="1147" y="320" width="140" height="140" as="geometry" />
        </mxCell>
        <mxCell id="TQMWpj2GuU2XblvTJpzS-21" value="" style="endArrow=none;html=1;rounded=0;exitX=0.5;exitY=0;exitDx=0;exitDy=0;" parent="WIyWlLk6GJQsqaUBKTNV-1" source="TQMWpj2GuU2XblvTJpzS-18" edge="1">
          <mxGeometry width="50" height="50" relative="1" as="geometry">
            <mxPoint x="1157" y="260" as="sourcePoint" />
            <mxPoint x="1217" y="120" as="targetPoint" />
          </mxGeometry>
        </mxCell>
        <mxCell id="TQMWpj2GuU2XblvTJpzS-24" value="true" style="edgeLabel;html=1;align=center;verticalAlign=middle;resizable=0;points=[];" parent="TQMWpj2GuU2XblvTJpzS-21" vertex="1" connectable="0">
          <mxGeometry x="-0.726" y="-1" relative="1" as="geometry">
            <mxPoint as="offset" />
          </mxGeometry>
        </mxCell>
        <mxCell id="TQMWpj2GuU2XblvTJpzS-22" value="" style="endArrow=classic;html=1;rounded=0;entryX=1;entryY=0.5;entryDx=0;entryDy=0;" parent="WIyWlLk6GJQsqaUBKTNV-1" target="TQMWpj2GuU2XblvTJpzS-1" edge="1">
          <mxGeometry width="50" height="50" relative="1" as="geometry">
            <mxPoint x="1217" y="120" as="sourcePoint" />
            <mxPoint x="1207" y="210" as="targetPoint" />
          </mxGeometry>
        </mxCell>
        <mxCell id="TQMWpj2GuU2XblvTJpzS-143" value="loop" style="edgeLabel;html=1;align=center;verticalAlign=middle;resizable=0;points=[];" parent="TQMWpj2GuU2XblvTJpzS-22" vertex="1" connectable="0">
          <mxGeometry x="0.2987" relative="1" as="geometry">
            <mxPoint as="offset" />
          </mxGeometry>
        </mxCell>
        <mxCell id="TQMWpj2GuU2XblvTJpzS-28" value="" style="group" parent="WIyWlLk6GJQsqaUBKTNV-1" vertex="1" connectable="0">
          <mxGeometry x="871" y="520" width="224" height="80" as="geometry" />
        </mxCell>
        <mxCell id="TQMWpj2GuU2XblvTJpzS-29" value="Print Tampilan Menu" style="shape=parallelogram;perimeter=parallelogramPerimeter;whiteSpace=wrap;html=1;fixedSize=1;" parent="TQMWpj2GuU2XblvTJpzS-28" vertex="1">
          <mxGeometry width="180" height="80" as="geometry" />
        </mxCell>
        <mxCell id="TQMWpj2GuU2XblvTJpzS-30" value="" style="endArrow=classic;html=1;rounded=0;exitX=0.9;exitY=1;exitDx=0;exitDy=0;exitPerimeter=0;" parent="TQMWpj2GuU2XblvTJpzS-28" source="TQMWpj2GuU2XblvTJpzS-29" edge="1">
          <mxGeometry width="50" height="50" relative="1" as="geometry">
            <mxPoint x="66" y="160" as="sourcePoint" />
            <mxPoint x="206" y="80" as="targetPoint" />
          </mxGeometry>
        </mxCell>
        <mxCell id="TQMWpj2GuU2XblvTJpzS-33" value="" style="group" parent="WIyWlLk6GJQsqaUBKTNV-1" vertex="1" connectable="0">
          <mxGeometry x="827" y="640" width="224" height="80" as="geometry" />
        </mxCell>
        <mxCell id="TQMWpj2GuU2XblvTJpzS-34" value="Pengguna menginput&amp;nbsp;&lt;div&gt;pilihan berdasarkan angka&lt;/div&gt;" style="shape=parallelogram;perimeter=parallelogramPerimeter;whiteSpace=wrap;html=1;fixedSize=1;" parent="TQMWpj2GuU2XblvTJpzS-33" vertex="1">
          <mxGeometry x="44" width="180" height="80" as="geometry" />
        </mxCell>
        <mxCell id="TQMWpj2GuU2XblvTJpzS-35" value="" style="endArrow=classic;html=1;rounded=0;entryX=0.113;entryY=0.002;entryDx=0;entryDy=0;entryPerimeter=0;" parent="TQMWpj2GuU2XblvTJpzS-33" target="TQMWpj2GuU2XblvTJpzS-34" edge="1">
          <mxGeometry width="50" height="50" relative="1" as="geometry">
            <mxPoint as="sourcePoint" />
            <mxPoint x="160" y="-10" as="targetPoint" />
          </mxGeometry>
        </mxCell>
        <mxCell id="TQMWpj2GuU2XblvTJpzS-36" value="" style="edgeStyle=orthogonalEdgeStyle;rounded=0;orthogonalLoop=1;jettySize=auto;html=1;" parent="WIyWlLk6GJQsqaUBKTNV-1" source="TQMWpj2GuU2XblvTJpzS-29" target="TQMWpj2GuU2XblvTJpzS-34" edge="1">
          <mxGeometry relative="1" as="geometry" />
        </mxCell>
        <mxCell id="CPGWKNepS4F0Ph8pHmQM-7" value="" style="group" parent="WIyWlLk6GJQsqaUBKTNV-1" vertex="1" connectable="0">
          <mxGeometry x="1430" y="350" width="224" height="80" as="geometry" />
        </mxCell>
        <mxCell id="CPGWKNepS4F0Ph8pHmQM-8" value="Print &quot;Anda Telah&amp;nbsp;&lt;div&gt;Salah 3 kali&quot;&lt;/div&gt;" style="shape=parallelogram;perimeter=parallelogramPerimeter;whiteSpace=wrap;html=1;fixedSize=1;" parent="CPGWKNepS4F0Ph8pHmQM-7" vertex="1">
          <mxGeometry x="-10" width="180" height="80" as="geometry" />
        </mxCell>
        <mxCell id="CPGWKNepS4F0Ph8pHmQM-9" value="" style="endArrow=classic;html=1;rounded=0;exitX=0.9;exitY=1;exitDx=0;exitDy=0;exitPerimeter=0;" parent="CPGWKNepS4F0Ph8pHmQM-7" source="CPGWKNepS4F0Ph8pHmQM-8" edge="1">
          <mxGeometry width="50" height="50" relative="1" as="geometry">
            <mxPoint x="66" y="160" as="sourcePoint" />
            <mxPoint x="206" y="80" as="targetPoint" />
          </mxGeometry>
        </mxCell>
        <mxCell id="CPGWKNepS4F0Ph8pHmQM-10" value="" style="endArrow=classic;html=1;rounded=0;exitX=1;exitY=0.5;exitDx=0;exitDy=0;entryX=0;entryY=0.5;entryDx=0;entryDy=0;" parent="WIyWlLk6GJQsqaUBKTNV-1" source="TQMWpj2GuU2XblvTJpzS-18" target="CPGWKNepS4F0Ph8pHmQM-8" edge="1">
          <mxGeometry width="50" height="50" relative="1" as="geometry">
            <mxPoint x="1350" y="460" as="sourcePoint" />
            <mxPoint x="1400" y="410" as="targetPoint" />
          </mxGeometry>
        </mxCell>
        <mxCell id="CPGWKNepS4F0Ph8pHmQM-11" value="false" style="edgeLabel;html=1;align=center;verticalAlign=middle;resizable=0;points=[];" parent="CPGWKNepS4F0Ph8pHmQM-10" vertex="1" connectable="0">
          <mxGeometry x="-0.4881" y="-1" relative="1" as="geometry">
            <mxPoint as="offset" />
          </mxGeometry>
        </mxCell>
        <mxCell id="BORtTbWCgBriATxm2zL_-1" value="" style="group" parent="WIyWlLk6GJQsqaUBKTNV-1" vertex="1" connectable="0">
          <mxGeometry x="871" y="-520" width="206" height="80" as="geometry" />
        </mxCell>
        <mxCell id="BORtTbWCgBriATxm2zL_-2" value="Print menu tampilan untuk registrasi,login dan keluar program" style="shape=parallelogram;perimeter=parallelogramPerimeter;whiteSpace=wrap;html=1;fixedSize=1;" parent="BORtTbWCgBriATxm2zL_-1" vertex="1">
          <mxGeometry width="180" height="80" as="geometry" />
        </mxCell>
        <mxCell id="BORtTbWCgBriATxm2zL_-3" value="" style="endArrow=classic;html=1;rounded=0;exitX=0.9;exitY=1;exitDx=0;exitDy=0;exitPerimeter=0;" parent="BORtTbWCgBriATxm2zL_-1" source="BORtTbWCgBriATxm2zL_-2" edge="1">
          <mxGeometry width="50" height="50" relative="1" as="geometry">
            <mxPoint x="66" y="160" as="sourcePoint" />
            <mxPoint x="206" y="80" as="targetPoint" />
          </mxGeometry>
        </mxCell>
        <mxCell id="BORtTbWCgBriATxm2zL_-9" value="Menyimpan data&amp;nbsp;&lt;div&gt;user di array of struct user melalui prosedur registrasi&lt;/div&gt;" style="rounded=0;whiteSpace=wrap;html=1;" parent="WIyWlLk6GJQsqaUBKTNV-1" vertex="1">
          <mxGeometry x="617.5" y="-80" width="133" height="80" as="geometry" />
        </mxCell>
        <mxCell id="BORtTbWCgBriATxm2zL_-12" value="Apakah input&amp;nbsp;&lt;div&gt;pengguna ==2?&lt;/div&gt;" style="rhombus;whiteSpace=wrap;html=1;" parent="WIyWlLk6GJQsqaUBKTNV-1" vertex="1">
          <mxGeometry x="891" y="-380" width="140" height="140" as="geometry" />
        </mxCell>
        <mxCell id="BORtTbWCgBriATxm2zL_-23" value="" style="edgeStyle=orthogonalEdgeStyle;rounded=0;orthogonalLoop=1;jettySize=auto;html=1;" parent="WIyWlLk6GJQsqaUBKTNV-1" source="BORtTbWCgBriATxm2zL_-13" target="BORtTbWCgBriATxm2zL_-21" edge="1">
          <mxGeometry relative="1" as="geometry" />
        </mxCell>
        <mxCell id="BORtTbWCgBriATxm2zL_-33" value="true" style="edgeLabel;html=1;align=center;verticalAlign=middle;resizable=0;points=[];" parent="BORtTbWCgBriATxm2zL_-23" vertex="1" connectable="0">
          <mxGeometry x="-0.24" relative="1" as="geometry">
            <mxPoint as="offset" />
          </mxGeometry>
        </mxCell>
        <mxCell id="BORtTbWCgBriATxm2zL_-13" value="Apakah input&amp;nbsp;&lt;div&gt;pengguna ==3?&lt;/div&gt;" style="rhombus;whiteSpace=wrap;html=1;" parent="WIyWlLk6GJQsqaUBKTNV-1" vertex="1">
          <mxGeometry x="1162" y="-380" width="140" height="140" as="geometry" />
        </mxCell>
        <mxCell id="BORtTbWCgBriATxm2zL_-8" value="" style="edgeStyle=orthogonalEdgeStyle;rounded=0;orthogonalLoop=1;jettySize=auto;html=1;" parent="WIyWlLk6GJQsqaUBKTNV-1" source="BORtTbWCgBriATxm2zL_-4" target="BORtTbWCgBriATxm2zL_-6" edge="1">
          <mxGeometry relative="1" as="geometry" />
        </mxCell>
        <mxCell id="BORtTbWCgBriATxm2zL_-31" value="true" style="edgeLabel;html=1;align=center;verticalAlign=middle;resizable=0;points=[];" parent="BORtTbWCgBriATxm2zL_-8" vertex="1" connectable="0">
          <mxGeometry x="-0.49" relative="1" as="geometry">
            <mxPoint as="offset" />
          </mxGeometry>
        </mxCell>
        <mxCell id="BORtTbWCgBriATxm2zL_-4" value="Apakah input&amp;nbsp;&lt;div&gt;pengguna ==1?&lt;/div&gt;" style="rhombus;whiteSpace=wrap;html=1;" parent="WIyWlLk6GJQsqaUBKTNV-1" vertex="1">
          <mxGeometry x="614" y="-380" width="140" height="140" as="geometry" />
        </mxCell>
        <mxCell id="BORtTbWCgBriATxm2zL_-5" value="" style="group" parent="WIyWlLk6GJQsqaUBKTNV-1" vertex="1" connectable="0">
          <mxGeometry x="550" y="-200" width="224" height="80" as="geometry" />
        </mxCell>
        <mxCell id="BORtTbWCgBriATxm2zL_-6" value="Pengguna menginput&amp;nbsp;&lt;div&gt;nama dan password untuk registrasi&lt;/div&gt;" style="shape=parallelogram;perimeter=parallelogramPerimeter;whiteSpace=wrap;html=1;fixedSize=1;" parent="BORtTbWCgBriATxm2zL_-5" vertex="1">
          <mxGeometry x="44" width="180" height="80" as="geometry" />
        </mxCell>
        <mxCell id="BORtTbWCgBriATxm2zL_-7" value="" style="endArrow=classic;html=1;rounded=0;entryX=0.113;entryY=0.002;entryDx=0;entryDy=0;entryPerimeter=0;" parent="BORtTbWCgBriATxm2zL_-5" target="BORtTbWCgBriATxm2zL_-6" edge="1">
          <mxGeometry width="50" height="50" relative="1" as="geometry">
            <mxPoint as="sourcePoint" />
            <mxPoint x="160" y="-10" as="targetPoint" />
          </mxGeometry>
        </mxCell>
        <mxCell id="BORtTbWCgBriATxm2zL_-10" value="" style="edgeStyle=orthogonalEdgeStyle;rounded=0;orthogonalLoop=1;jettySize=auto;html=1;" parent="WIyWlLk6GJQsqaUBKTNV-1" source="BORtTbWCgBriATxm2zL_-6" target="BORtTbWCgBriATxm2zL_-9" edge="1">
          <mxGeometry relative="1" as="geometry" />
        </mxCell>
        <mxCell id="BORtTbWCgBriATxm2zL_-16" value="" style="endArrow=classic;html=1;rounded=0;exitX=0.5;exitY=1;exitDx=0;exitDy=0;entryX=0.5;entryY=0;entryDx=0;entryDy=0;" parent="WIyWlLk6GJQsqaUBKTNV-1" source="BORtTbWCgBriATxm2zL_-12" target="TQMWpj2GuU2XblvTJpzS-1" edge="1">
          <mxGeometry width="50" height="50" relative="1" as="geometry">
            <mxPoint x="1000" y="-130" as="sourcePoint" />
            <mxPoint x="1050" y="-180" as="targetPoint" />
          </mxGeometry>
        </mxCell>
        <mxCell id="BORtTbWCgBriATxm2zL_-32" value="true" style="edgeLabel;html=1;align=center;verticalAlign=middle;resizable=0;points=[];" parent="BORtTbWCgBriATxm2zL_-16" vertex="1" connectable="0">
          <mxGeometry x="-0.8675" y="-2" relative="1" as="geometry">
            <mxPoint as="offset" />
          </mxGeometry>
        </mxCell>
        <mxCell id="BORtTbWCgBriATxm2zL_-17" value="" style="endArrow=classic;html=1;rounded=0;exitX=1;exitY=0.5;exitDx=0;exitDy=0;" parent="WIyWlLk6GJQsqaUBKTNV-1" source="BORtTbWCgBriATxm2zL_-4" edge="1">
          <mxGeometry width="50" height="50" relative="1" as="geometry">
            <mxPoint x="1130" y="-230" as="sourcePoint" />
            <mxPoint x="890" y="-310" as="targetPoint" />
          </mxGeometry>
        </mxCell>
        <mxCell id="BORtTbWCgBriATxm2zL_-34" value="false" style="edgeLabel;html=1;align=center;verticalAlign=middle;resizable=0;points=[];" parent="BORtTbWCgBriATxm2zL_-17" vertex="1" connectable="0">
          <mxGeometry x="-0.5176" y="-1" relative="1" as="geometry">
            <mxPoint x="-13" y="-1" as="offset" />
          </mxGeometry>
        </mxCell>
        <mxCell id="BORtTbWCgBriATxm2zL_-18" value="" style="endArrow=classic;html=1;rounded=0;exitX=1;exitY=0.5;exitDx=0;exitDy=0;entryX=0;entryY=0.5;entryDx=0;entryDy=0;" parent="WIyWlLk6GJQsqaUBKTNV-1" source="BORtTbWCgBriATxm2zL_-12" target="BORtTbWCgBriATxm2zL_-13" edge="1">
          <mxGeometry width="50" height="50" relative="1" as="geometry">
            <mxPoint x="1130" y="-230" as="sourcePoint" />
            <mxPoint x="1180" y="-280" as="targetPoint" />
          </mxGeometry>
        </mxCell>
        <mxCell id="BORtTbWCgBriATxm2zL_-35" value="false" style="edgeLabel;html=1;align=center;verticalAlign=middle;resizable=0;points=[];" parent="BORtTbWCgBriATxm2zL_-18" vertex="1" connectable="0">
          <mxGeometry x="-0.5145" y="3" relative="1" as="geometry">
            <mxPoint x="1" y="3" as="offset" />
          </mxGeometry>
        </mxCell>
        <mxCell id="BORtTbWCgBriATxm2zL_-20" value="" style="group" parent="WIyWlLk6GJQsqaUBKTNV-1" vertex="1" connectable="0">
          <mxGeometry x="1140" y="-200" width="216" height="80" as="geometry" />
        </mxCell>
        <mxCell id="BORtTbWCgBriATxm2zL_-21" value="Print &quot;Terima kasih telah berkunjung&quot;" style="shape=parallelogram;perimeter=parallelogramPerimeter;whiteSpace=wrap;html=1;fixedSize=1;" parent="BORtTbWCgBriATxm2zL_-20" vertex="1">
          <mxGeometry x="2" width="180" height="80" as="geometry" />
        </mxCell>
        <mxCell id="BORtTbWCgBriATxm2zL_-22" value="" style="endArrow=classic;html=1;rounded=0;exitX=0.9;exitY=1;exitDx=0;exitDy=0;exitPerimeter=0;" parent="BORtTbWCgBriATxm2zL_-20" source="BORtTbWCgBriATxm2zL_-21" edge="1">
          <mxGeometry width="50" height="50" relative="1" as="geometry">
            <mxPoint x="76" y="160" as="sourcePoint" />
            <mxPoint x="216" y="80" as="targetPoint" />
          </mxGeometry>
        </mxCell>
        <mxCell id="BORtTbWCgBriATxm2zL_-26" value="" style="edgeStyle=orthogonalEdgeStyle;rounded=0;orthogonalLoop=1;jettySize=auto;html=1;" parent="WIyWlLk6GJQsqaUBKTNV-1" source="BORtTbWCgBriATxm2zL_-2" target="BORtTbWCgBriATxm2zL_-12" edge="1">
          <mxGeometry relative="1" as="geometry" />
        </mxCell>
        <mxCell id="BORtTbWCgBriATxm2zL_-27" value="" style="endArrow=none;html=1;rounded=0;exitX=1;exitY=0.5;exitDx=0;exitDy=0;" parent="WIyWlLk6GJQsqaUBKTNV-1" source="BORtTbWCgBriATxm2zL_-13" edge="1">
          <mxGeometry width="50" height="50" relative="1" as="geometry">
            <mxPoint x="1100" y="-250" as="sourcePoint" />
            <mxPoint x="1400" y="-310" as="targetPoint" />
          </mxGeometry>
        </mxCell>
        <mxCell id="BORtTbWCgBriATxm2zL_-36" value="false" style="edgeLabel;html=1;align=center;verticalAlign=middle;resizable=0;points=[];" parent="BORtTbWCgBriATxm2zL_-27" vertex="1" connectable="0">
          <mxGeometry x="-0.4939" relative="1" as="geometry">
            <mxPoint as="offset" />
          </mxGeometry>
        </mxCell>
        <mxCell id="BORtTbWCgBriATxm2zL_-29" value="" style="endArrow=none;html=1;rounded=0;" parent="WIyWlLk6GJQsqaUBKTNV-1" edge="1">
          <mxGeometry width="50" height="50" relative="1" as="geometry">
            <mxPoint x="1400" y="-310" as="sourcePoint" />
            <mxPoint x="1400" y="-480" as="targetPoint" />
          </mxGeometry>
        </mxCell>
        <mxCell id="BORtTbWCgBriATxm2zL_-30" value="" style="endArrow=classic;html=1;rounded=0;entryX=1;entryY=0.5;entryDx=0;entryDy=0;" parent="WIyWlLk6GJQsqaUBKTNV-1" target="BORtTbWCgBriATxm2zL_-2" edge="1">
          <mxGeometry width="50" height="50" relative="1" as="geometry">
            <mxPoint x="1400" y="-480" as="sourcePoint" />
            <mxPoint x="1150" y="-300" as="targetPoint" />
          </mxGeometry>
        </mxCell>
        <mxCell id="BORtTbWCgBriATxm2zL_-37" value="loop" style="edgeLabel;html=1;align=center;verticalAlign=middle;resizable=0;points=[];" parent="BORtTbWCgBriATxm2zL_-30" vertex="1" connectable="0">
          <mxGeometry x="0.7226" y="-1" relative="1" as="geometry">
            <mxPoint as="offset" />
          </mxGeometry>
        </mxCell>
        <mxCell id="BORtTbWCgBriATxm2zL_-39" value="" style="edgeStyle=orthogonalEdgeStyle;rounded=0;orthogonalLoop=1;jettySize=auto;html=1;" parent="WIyWlLk6GJQsqaUBKTNV-1" source="TQMWpj2GuU2XblvTJpzS-37" target="BORtTbWCgBriATxm2zL_-38" edge="1">
          <mxGeometry relative="1" as="geometry">
            <mxPoint x="414" y="980" as="sourcePoint" />
            <mxPoint x="414" y="1180" as="targetPoint" />
          </mxGeometry>
        </mxCell>
        <mxCell id="BORtTbWCgBriATxm2zL_-56" value="true" style="edgeLabel;html=1;align=center;verticalAlign=middle;resizable=0;points=[];" parent="BORtTbWCgBriATxm2zL_-39" vertex="1" connectable="0">
          <mxGeometry x="0.288" y="-2" relative="1" as="geometry">
            <mxPoint as="offset" />
          </mxGeometry>
        </mxCell>
        <mxCell id="BORtTbWCgBriATxm2zL_-38" value="apakah pengguna&amp;nbsp;&lt;div&gt;saat ini admin?&lt;/div&gt;" style="rhombus;whiteSpace=wrap;html=1;" parent="WIyWlLk6GJQsqaUBKTNV-1" vertex="1">
          <mxGeometry x="344" y="1030" width="140" height="140" as="geometry" />
        </mxCell>
        <mxCell id="BORtTbWCgBriATxm2zL_-42" value="" style="endArrow=none;html=1;rounded=0;exitX=1;exitY=0.5;exitDx=0;exitDy=0;" parent="WIyWlLk6GJQsqaUBKTNV-1" source="BORtTbWCgBriATxm2zL_-38" edge="1">
          <mxGeometry width="50" height="50" relative="1" as="geometry">
            <mxPoint x="780" y="1150" as="sourcePoint" />
            <mxPoint x="560" y="1100" as="targetPoint" />
          </mxGeometry>
        </mxCell>
        <mxCell id="BORtTbWCgBriATxm2zL_-58" value="false" style="edgeLabel;html=1;align=center;verticalAlign=middle;resizable=0;points=[];" parent="BORtTbWCgBriATxm2zL_-42" vertex="1" connectable="0">
          <mxGeometry x="0.1316" y="-1" relative="1" as="geometry">
            <mxPoint as="offset" />
          </mxGeometry>
        </mxCell>
        <mxCell id="BORtTbWCgBriATxm2zL_-43" value="" style="endArrow=classic;html=1;rounded=0;" parent="WIyWlLk6GJQsqaUBKTNV-1" edge="1">
          <mxGeometry width="50" height="50" relative="1" as="geometry">
            <mxPoint x="560" y="1100" as="sourcePoint" />
            <mxPoint x="560" y="1760" as="targetPoint" />
          </mxGeometry>
        </mxCell>
        <mxCell id="BORtTbWCgBriATxm2zL_-47" value="" style="edgeStyle=orthogonalEdgeStyle;rounded=0;orthogonalLoop=1;jettySize=auto;html=1;" parent="WIyWlLk6GJQsqaUBKTNV-1" source="BORtTbWCgBriATxm2zL_-44" target="TQMWpj2GuU2XblvTJpzS-73" edge="1">
          <mxGeometry relative="1" as="geometry" />
        </mxCell>
        <mxCell id="BORtTbWCgBriATxm2zL_-72" value="true" style="edgeLabel;html=1;align=center;verticalAlign=middle;resizable=0;points=[];" parent="BORtTbWCgBriATxm2zL_-47" vertex="1" connectable="0">
          <mxGeometry x="-0.392" relative="1" as="geometry">
            <mxPoint as="offset" />
          </mxGeometry>
        </mxCell>
        <mxCell id="BORtTbWCgBriATxm2zL_-44" value="apakah pengguna&amp;nbsp;&lt;div&gt;saat ini admin?&lt;/div&gt;" style="rhombus;whiteSpace=wrap;html=1;" parent="WIyWlLk6GJQsqaUBKTNV-1" vertex="1">
          <mxGeometry x="904" y="1010" width="140" height="140" as="geometry" />
        </mxCell>
        <mxCell id="BORtTbWCgBriATxm2zL_-48" value="" style="endArrow=none;html=1;rounded=0;exitX=1;exitY=0.5;exitDx=0;exitDy=0;" parent="WIyWlLk6GJQsqaUBKTNV-1" source="BORtTbWCgBriATxm2zL_-44" edge="1">
          <mxGeometry width="50" height="50" relative="1" as="geometry">
            <mxPoint x="870" y="1220" as="sourcePoint" />
            <mxPoint x="1100" y="1080" as="targetPoint" />
          </mxGeometry>
        </mxCell>
        <mxCell id="BORtTbWCgBriATxm2zL_-59" value="false" style="edgeLabel;html=1;align=center;verticalAlign=middle;resizable=0;points=[];" parent="BORtTbWCgBriATxm2zL_-48" vertex="1" connectable="0">
          <mxGeometry x="0.0429" y="1" relative="1" as="geometry">
            <mxPoint as="offset" />
          </mxGeometry>
        </mxCell>
        <mxCell id="BORtTbWCgBriATxm2zL_-49" value="" style="endArrow=classic;html=1;rounded=0;" parent="WIyWlLk6GJQsqaUBKTNV-1" edge="1">
          <mxGeometry width="50" height="50" relative="1" as="geometry">
            <mxPoint x="1100" y="1080" as="sourcePoint" />
            <mxPoint x="1100" y="1760" as="targetPoint" />
          </mxGeometry>
        </mxCell>
        <mxCell id="BORtTbWCgBriATxm2zL_-61" value="" style="endArrow=none;html=1;rounded=0;exitX=0.5;exitY=1;exitDx=0;exitDy=0;" parent="WIyWlLk6GJQsqaUBKTNV-1" source="TQMWpj2GuU2XblvTJpzS-92" edge="1">
          <mxGeometry width="50" height="50" relative="1" as="geometry">
            <mxPoint x="1620" y="1190" as="sourcePoint" />
            <mxPoint x="1790" y="1280" as="targetPoint" />
          </mxGeometry>
        </mxCell>
        <mxCell id="BORtTbWCgBriATxm2zL_-62" value="" style="endArrow=none;html=1;rounded=0;entryX=0.261;entryY=1.027;entryDx=0;entryDy=0;entryPerimeter=0;" parent="WIyWlLk6GJQsqaUBKTNV-1" edge="1" target="81BaxAbJWOzeDU-zqKsr-42">
          <mxGeometry width="50" height="50" relative="1" as="geometry">
            <mxPoint x="1790" y="1280" as="sourcePoint" />
            <mxPoint x="2200" y="1280" as="targetPoint" />
          </mxGeometry>
        </mxCell>
        <mxCell id="BORtTbWCgBriATxm2zL_-63" value="" style="endArrow=none;html=1;rounded=0;" parent="WIyWlLk6GJQsqaUBKTNV-1" edge="1">
          <mxGeometry width="50" height="50" relative="1" as="geometry">
            <mxPoint x="2320" y="1280" as="sourcePoint" />
            <mxPoint x="2320" y="-480" as="targetPoint" />
          </mxGeometry>
        </mxCell>
        <mxCell id="BORtTbWCgBriATxm2zL_-64" value="" style="endArrow=classic;html=1;rounded=0;" parent="WIyWlLk6GJQsqaUBKTNV-1" edge="1">
          <mxGeometry width="50" height="50" relative="1" as="geometry">
            <mxPoint x="2320" y="-480" as="sourcePoint" />
            <mxPoint x="1400" y="-480" as="targetPoint" />
          </mxGeometry>
        </mxCell>
        <mxCell id="BORtTbWCgBriATxm2zL_-65" value="" style="endArrow=none;html=1;rounded=0;" parent="WIyWlLk6GJQsqaUBKTNV-1" edge="1">
          <mxGeometry width="50" height="50" relative="1" as="geometry">
            <mxPoint x="1230" y="-120" as="sourcePoint" />
            <mxPoint x="1230" y="40" as="targetPoint" />
          </mxGeometry>
        </mxCell>
        <mxCell id="BORtTbWCgBriATxm2zL_-66" value="" style="endArrow=none;html=1;rounded=0;" parent="WIyWlLk6GJQsqaUBKTNV-1" edge="1">
          <mxGeometry width="50" height="50" relative="1" as="geometry">
            <mxPoint x="1230" y="40" as="sourcePoint" />
            <mxPoint x="2240" y="40" as="targetPoint" />
          </mxGeometry>
        </mxCell>
        <mxCell id="BORtTbWCgBriATxm2zL_-67" value="" style="endArrow=none;html=1;rounded=0;" parent="WIyWlLk6GJQsqaUBKTNV-1" edge="1" source="81BaxAbJWOzeDU-zqKsr-42">
          <mxGeometry width="50" height="50" relative="1" as="geometry">
            <mxPoint x="2240" y="30" as="sourcePoint" />
            <mxPoint x="2240" y="1840" as="targetPoint" />
          </mxGeometry>
        </mxCell>
        <mxCell id="BORtTbWCgBriATxm2zL_-69" value="" style="endArrow=classic;html=1;rounded=0;exitX=1;exitY=0.5;exitDx=0;exitDy=0;" parent="WIyWlLk6GJQsqaUBKTNV-1" source="CPGWKNepS4F0Ph8pHmQM-8" edge="1">
          <mxGeometry width="50" height="50" relative="1" as="geometry">
            <mxPoint x="1490" y="490" as="sourcePoint" />
            <mxPoint x="2240" y="390" as="targetPoint" />
          </mxGeometry>
        </mxCell>
        <mxCell id="BORtTbWCgBriATxm2zL_-74" value="" style="endArrow=none;html=1;rounded=0;exitX=0.5;exitY=1;exitDx=0;exitDy=0;" parent="WIyWlLk6GJQsqaUBKTNV-1" source="BORtTbWCgBriATxm2zL_-9" edge="1">
          <mxGeometry width="50" height="50" relative="1" as="geometry">
            <mxPoint x="540" y="-40" as="sourcePoint" />
            <mxPoint x="684" y="40" as="targetPoint" />
          </mxGeometry>
        </mxCell>
        <mxCell id="BORtTbWCgBriATxm2zL_-75" value="" style="endArrow=none;html=1;rounded=0;" parent="WIyWlLk6GJQsqaUBKTNV-1" edge="1">
          <mxGeometry width="50" height="50" relative="1" as="geometry">
            <mxPoint x="690" y="40" as="sourcePoint" />
            <mxPoint x="480" y="40" as="targetPoint" />
          </mxGeometry>
        </mxCell>
        <mxCell id="BORtTbWCgBriATxm2zL_-76" value="" style="endArrow=none;html=1;rounded=0;" parent="WIyWlLk6GJQsqaUBKTNV-1" edge="1">
          <mxGeometry width="50" height="50" relative="1" as="geometry">
            <mxPoint x="480" y="40" as="sourcePoint" />
            <mxPoint x="480" y="-480" as="targetPoint" />
          </mxGeometry>
        </mxCell>
        <mxCell id="BORtTbWCgBriATxm2zL_-77" value="" style="endArrow=classic;html=1;rounded=0;entryX=0;entryY=0.5;entryDx=0;entryDy=0;" parent="WIyWlLk6GJQsqaUBKTNV-1" target="BORtTbWCgBriATxm2zL_-2" edge="1">
          <mxGeometry width="50" height="50" relative="1" as="geometry">
            <mxPoint x="480" y="-480" as="sourcePoint" />
            <mxPoint x="590" y="-320" as="targetPoint" />
          </mxGeometry>
        </mxCell>
        <mxCell id="BORtTbWCgBriATxm2zL_-78" value="loop" style="edgeLabel;html=1;align=center;verticalAlign=middle;resizable=0;points=[];" parent="BORtTbWCgBriATxm2zL_-77" vertex="1" connectable="0">
          <mxGeometry x="0.7285" y="-3" relative="1" as="geometry">
            <mxPoint as="offset" />
          </mxGeometry>
        </mxCell>
        <mxCell id="81BaxAbJWOzeDU-zqKsr-51" value="" style="edgeStyle=orthogonalEdgeStyle;rounded=0;orthogonalLoop=1;jettySize=auto;html=1;" edge="1" parent="WIyWlLk6GJQsqaUBKTNV-1" source="81BaxAbJWOzeDU-zqKsr-0" target="BORtTbWCgBriATxm2zL_-2">
          <mxGeometry relative="1" as="geometry" />
        </mxCell>
        <mxCell id="81BaxAbJWOzeDU-zqKsr-0" value="Membuat berbagai fungsi dan prosedur, contohnya fungsi login, prosedur registrasi, dll." style="rounded=0;whiteSpace=wrap;html=1;" vertex="1" parent="WIyWlLk6GJQsqaUBKTNV-1">
          <mxGeometry x="894.5" y="-640" width="133" height="80" as="geometry" />
        </mxCell>
        <mxCell id="TQMWpj2GuU2XblvTJpzS-163" value="" style="edgeStyle=orthogonalEdgeStyle;rounded=0;orthogonalLoop=1;jettySize=auto;html=1;" parent="WIyWlLk6GJQsqaUBKTNV-1" source="TQMWpj2GuU2XblvTJpzS-0" target="TQMWpj2GuU2XblvTJpzS-160" edge="1">
          <mxGeometry relative="1" as="geometry" />
        </mxCell>
        <mxCell id="TQMWpj2GuU2XblvTJpzS-0" value="START" style="ellipse;whiteSpace=wrap;html=1;" parent="WIyWlLk6GJQsqaUBKTNV-1" vertex="1">
          <mxGeometry x="901" y="-1000" width="120" height="80" as="geometry" />
        </mxCell>
        <mxCell id="81BaxAbJWOzeDU-zqKsr-49" value="" style="edgeStyle=orthogonalEdgeStyle;rounded=0;orthogonalLoop=1;jettySize=auto;html=1;" edge="1" parent="WIyWlLk6GJQsqaUBKTNV-1" source="TQMWpj2GuU2XblvTJpzS-160" target="CPGWKNepS4F0Ph8pHmQM-13">
          <mxGeometry relative="1" as="geometry" />
        </mxCell>
        <mxCell id="TQMWpj2GuU2XblvTJpzS-160" value="Variabel Nama Admin = &quot;Naufal&quot;, Password = &quot;034&quot;&amp;nbsp;" style="rounded=0;whiteSpace=wrap;html=1;" parent="WIyWlLk6GJQsqaUBKTNV-1" vertex="1">
          <mxGeometry x="894.5" y="-880" width="133" height="80" as="geometry" />
        </mxCell>
        <mxCell id="81BaxAbJWOzeDU-zqKsr-50" value="" style="edgeStyle=orthogonalEdgeStyle;rounded=0;orthogonalLoop=1;jettySize=auto;html=1;" edge="1" parent="WIyWlLk6GJQsqaUBKTNV-1" source="CPGWKNepS4F0Ph8pHmQM-13" target="81BaxAbJWOzeDU-zqKsr-0">
          <mxGeometry relative="1" as="geometry" />
        </mxCell>
        <mxCell id="CPGWKNepS4F0Ph8pHmQM-13" value="Membuat berbagai Array of Struct untuk menyimpan input Pengguna" style="rounded=0;whiteSpace=wrap;html=1;" parent="WIyWlLk6GJQsqaUBKTNV-1" vertex="1">
          <mxGeometry x="894.5" y="-760" width="133" height="80" as="geometry" />
        </mxCell>
        <mxCell id="81BaxAbJWOzeDU-zqKsr-3" value="" style="endArrow=classic;html=1;rounded=0;exitX=0.5;exitY=1;exitDx=0;exitDy=0;" edge="1" parent="WIyWlLk6GJQsqaUBKTNV-1" source="CPGWKNepS4F0Ph8pHmQM-3">
          <mxGeometry width="50" height="50" relative="1" as="geometry">
            <mxPoint x="1020" y="1350" as="sourcePoint" />
            <mxPoint x="974" y="1760" as="targetPoint" />
          </mxGeometry>
        </mxCell>
        <mxCell id="TQMWpj2GuU2XblvTJpzS-47" value="Menyimpan Inputan Pengguna ke dalam Array Koleksi dengan menggunakan fungsi tambah_koleksi" style="rounded=0;whiteSpace=wrap;html=1;" parent="WIyWlLk6GJQsqaUBKTNV-1" vertex="1">
          <mxGeometry x="347.5" y="1400" width="133" height="80" as="geometry" />
        </mxCell>
        <mxCell id="TQMWpj2GuU2XblvTJpzS-48" value="" style="group" parent="WIyWlLk6GJQsqaUBKTNV-1" vertex="1" connectable="0">
          <mxGeometry x="280" y="1240" width="224" height="80" as="geometry" />
        </mxCell>
        <mxCell id="TQMWpj2GuU2XblvTJpzS-49" value="Pengguna menginput&amp;nbsp;&lt;div&gt;Judul Karya, Tahun Dibuat,&amp;nbsp;&lt;/div&gt;&lt;div&gt;dan Nama Seniman&lt;/div&gt;" style="shape=parallelogram;perimeter=parallelogramPerimeter;whiteSpace=wrap;html=1;fixedSize=1;" parent="TQMWpj2GuU2XblvTJpzS-48" vertex="1">
          <mxGeometry x="44" width="180" height="80" as="geometry" />
        </mxCell>
        <mxCell id="TQMWpj2GuU2XblvTJpzS-50" value="" style="endArrow=classic;html=1;rounded=0;entryX=0.113;entryY=0.002;entryDx=0;entryDy=0;entryPerimeter=0;" parent="TQMWpj2GuU2XblvTJpzS-48" target="TQMWpj2GuU2XblvTJpzS-49" edge="1">
          <mxGeometry width="50" height="50" relative="1" as="geometry">
            <mxPoint as="sourcePoint" />
            <mxPoint x="160" y="-10" as="targetPoint" />
          </mxGeometry>
        </mxCell>
        <mxCell id="TQMWpj2GuU2XblvTJpzS-52" value="" style="edgeStyle=orthogonalEdgeStyle;rounded=0;orthogonalLoop=1;jettySize=auto;html=1;" parent="WIyWlLk6GJQsqaUBKTNV-1" source="TQMWpj2GuU2XblvTJpzS-49" target="TQMWpj2GuU2XblvTJpzS-47" edge="1">
          <mxGeometry relative="1" as="geometry" />
        </mxCell>
        <mxCell id="TQMWpj2GuU2XblvTJpzS-72" value="" style="group" parent="WIyWlLk6GJQsqaUBKTNV-1" vertex="1" connectable="0">
          <mxGeometry x="840" y="1240" width="224" height="80" as="geometry" />
        </mxCell>
        <mxCell id="TQMWpj2GuU2XblvTJpzS-73" value="Pengguna menginput&amp;nbsp;&lt;div&gt;Nomor urut berapa&amp;nbsp;&lt;/div&gt;&lt;div&gt;Koleksi yang ingin&lt;/div&gt;&lt;div&gt;&amp;nbsp;diperbarui&lt;/div&gt;" style="shape=parallelogram;perimeter=parallelogramPerimeter;whiteSpace=wrap;html=1;fixedSize=1;" parent="TQMWpj2GuU2XblvTJpzS-72" vertex="1">
          <mxGeometry x="44" width="180" height="80" as="geometry" />
        </mxCell>
        <mxCell id="TQMWpj2GuU2XblvTJpzS-74" value="" style="endArrow=classic;html=1;rounded=0;entryX=0.113;entryY=0.002;entryDx=0;entryDy=0;entryPerimeter=0;" parent="TQMWpj2GuU2XblvTJpzS-72" target="TQMWpj2GuU2XblvTJpzS-73" edge="1">
          <mxGeometry width="50" height="50" relative="1" as="geometry">
            <mxPoint as="sourcePoint" />
            <mxPoint x="160" y="-10" as="targetPoint" />
          </mxGeometry>
        </mxCell>
        <mxCell id="TQMWpj2GuU2XblvTJpzS-75" value="" style="edgeStyle=orthogonalEdgeStyle;rounded=0;orthogonalLoop=1;jettySize=auto;html=1;entryX=0.5;entryY=0;entryDx=0;entryDy=0;" parent="WIyWlLk6GJQsqaUBKTNV-1" source="TQMWpj2GuU2XblvTJpzS-73" edge="1" target="CPGWKNepS4F0Ph8pHmQM-1">
          <mxGeometry relative="1" as="geometry">
            <mxPoint x="974" y="1380" as="targetPoint" />
          </mxGeometry>
        </mxCell>
        <mxCell id="CPGWKNepS4F0Ph8pHmQM-0" value="" style="group" parent="WIyWlLk6GJQsqaUBKTNV-1" vertex="1" connectable="0">
          <mxGeometry x="840" y="1400" width="224" height="80" as="geometry" />
        </mxCell>
        <mxCell id="CPGWKNepS4F0Ph8pHmQM-1" value="Pengguna Menginput Judul Karya Baru, Tahun Dibuat,&amp;nbsp;&lt;div&gt;Serta Nama Seniman&amp;nbsp;&lt;/div&gt;&lt;div&gt;yang Baru&lt;/div&gt;" style="shape=parallelogram;perimeter=parallelogramPerimeter;whiteSpace=wrap;html=1;fixedSize=1;" parent="CPGWKNepS4F0Ph8pHmQM-0" vertex="1">
          <mxGeometry x="44" width="180" height="80" as="geometry" />
        </mxCell>
        <mxCell id="CPGWKNepS4F0Ph8pHmQM-2" value="" style="endArrow=classic;html=1;rounded=0;entryX=0.113;entryY=0.002;entryDx=0;entryDy=0;entryPerimeter=0;" parent="CPGWKNepS4F0Ph8pHmQM-0" target="CPGWKNepS4F0Ph8pHmQM-1" edge="1">
          <mxGeometry width="50" height="50" relative="1" as="geometry">
            <mxPoint as="sourcePoint" />
            <mxPoint x="160" y="-10" as="targetPoint" />
          </mxGeometry>
        </mxCell>
        <mxCell id="CPGWKNepS4F0Ph8pHmQM-3" value="Mengganti data dalam array berdasarkan indeks ke data hasil inputan pengguna menggunakan fungsi ubah_koleksi" style="rounded=0;whiteSpace=wrap;html=1;" parent="WIyWlLk6GJQsqaUBKTNV-1" vertex="1">
          <mxGeometry x="902.75" y="1560" width="142.5" height="90" as="geometry" />
        </mxCell>
        <mxCell id="81BaxAbJWOzeDU-zqKsr-28" value="" style="edgeStyle=orthogonalEdgeStyle;rounded=0;orthogonalLoop=1;jettySize=auto;html=1;" edge="1" parent="WIyWlLk6GJQsqaUBKTNV-1" source="CPGWKNepS4F0Ph8pHmQM-1" target="CPGWKNepS4F0Ph8pHmQM-3">
          <mxGeometry relative="1" as="geometry" />
        </mxCell>
        <mxCell id="81BaxAbJWOzeDU-zqKsr-35" value="" style="endArrow=classic;html=1;rounded=0;exitX=1;exitY=0.5;exitDx=0;exitDy=0;entryX=0;entryY=0.5;entryDx=0;entryDy=0;" edge="1" parent="WIyWlLk6GJQsqaUBKTNV-1" source="TQMWpj2GuU2XblvTJpzS-41" target="TQMWpj2GuU2XblvTJpzS-45">
          <mxGeometry width="50" height="50" relative="1" as="geometry">
            <mxPoint x="1340" y="930" as="sourcePoint" />
            <mxPoint x="1390" y="880" as="targetPoint" />
          </mxGeometry>
        </mxCell>
        <mxCell id="81BaxAbJWOzeDU-zqKsr-36" value="false" style="edgeLabel;html=1;align=center;verticalAlign=middle;resizable=0;points=[];" vertex="1" connectable="0" parent="81BaxAbJWOzeDU-zqKsr-35">
          <mxGeometry x="-0.0381" y="1" relative="1" as="geometry">
            <mxPoint as="offset" />
          </mxGeometry>
        </mxCell>
        <mxCell id="81BaxAbJWOzeDU-zqKsr-39" value="" style="endArrow=none;html=1;rounded=0;exitX=1;exitY=0.5;exitDx=0;exitDy=0;" edge="1" parent="WIyWlLk6GJQsqaUBKTNV-1" source="BORtTbWCgBriATxm2zL_-51">
          <mxGeometry width="50" height="50" relative="1" as="geometry">
            <mxPoint x="1460" y="1210" as="sourcePoint" />
            <mxPoint x="1640" y="1080" as="targetPoint" />
          </mxGeometry>
        </mxCell>
        <mxCell id="81BaxAbJWOzeDU-zqKsr-46" value="false" style="edgeLabel;html=1;align=center;verticalAlign=middle;resizable=0;points=[];" vertex="1" connectable="0" parent="81BaxAbJWOzeDU-zqKsr-39">
          <mxGeometry x="-0.7463" relative="1" as="geometry">
            <mxPoint x="-1" as="offset" />
          </mxGeometry>
        </mxCell>
        <mxCell id="81BaxAbJWOzeDU-zqKsr-40" value="" style="endArrow=classic;html=1;rounded=0;" edge="1" parent="WIyWlLk6GJQsqaUBKTNV-1">
          <mxGeometry width="50" height="50" relative="1" as="geometry">
            <mxPoint x="1640" y="1080" as="sourcePoint" />
            <mxPoint x="1640" y="1760" as="targetPoint" />
          </mxGeometry>
        </mxCell>
        <mxCell id="81BaxAbJWOzeDU-zqKsr-13" value="" style="edgeStyle=orthogonalEdgeStyle;rounded=0;orthogonalLoop=1;jettySize=auto;html=1;" edge="1" parent="WIyWlLk6GJQsqaUBKTNV-1" source="TQMWpj2GuU2XblvTJpzS-41" target="BORtTbWCgBriATxm2zL_-51">
          <mxGeometry relative="1" as="geometry" />
        </mxCell>
        <mxCell id="81BaxAbJWOzeDU-zqKsr-37" value="true" style="edgeLabel;html=1;align=center;verticalAlign=middle;resizable=0;points=[];" vertex="1" connectable="0" parent="81BaxAbJWOzeDU-zqKsr-13">
          <mxGeometry x="0.5889" relative="1" as="geometry">
            <mxPoint as="offset" />
          </mxGeometry>
        </mxCell>
        <mxCell id="TQMWpj2GuU2XblvTJpzS-41" value="Apakah input&amp;nbsp;&lt;div&gt;pengguna adalah 4?&lt;/div&gt;" style="rhombus;whiteSpace=wrap;html=1;" parent="WIyWlLk6GJQsqaUBKTNV-1" vertex="1">
          <mxGeometry x="1223" y="840" width="140" height="140" as="geometry" />
        </mxCell>
        <mxCell id="81BaxAbJWOzeDU-zqKsr-14" value="" style="edgeStyle=orthogonalEdgeStyle;rounded=0;orthogonalLoop=1;jettySize=auto;html=1;" edge="1" parent="WIyWlLk6GJQsqaUBKTNV-1" source="BORtTbWCgBriATxm2zL_-51" target="81BaxAbJWOzeDU-zqKsr-10">
          <mxGeometry relative="1" as="geometry" />
        </mxCell>
        <mxCell id="81BaxAbJWOzeDU-zqKsr-38" value="true" style="edgeLabel;html=1;align=center;verticalAlign=middle;resizable=0;points=[];" vertex="1" connectable="0" parent="81BaxAbJWOzeDU-zqKsr-14">
          <mxGeometry x="-0.7316" relative="1" as="geometry">
            <mxPoint as="offset" />
          </mxGeometry>
        </mxCell>
        <mxCell id="BORtTbWCgBriATxm2zL_-51" value="apakah pengguna&amp;nbsp;&lt;div&gt;saat ini admin?&lt;/div&gt;" style="rhombus;whiteSpace=wrap;html=1;" parent="WIyWlLk6GJQsqaUBKTNV-1" vertex="1">
          <mxGeometry x="1223" y="1010" width="140" height="140" as="geometry" />
        </mxCell>
        <mxCell id="TQMWpj2GuU2XblvTJpzS-81" value="Menghapus Data Berdasarkan Indeks Inputan Pengguna menggunakan fungsi hapus_koleksi" style="rounded=0;whiteSpace=wrap;html=1;" parent="WIyWlLk6GJQsqaUBKTNV-1" vertex="1">
          <mxGeometry x="1226.5" y="1600" width="133" height="80" as="geometry" />
        </mxCell>
        <mxCell id="81BaxAbJWOzeDU-zqKsr-22" value="" style="edgeStyle=orthogonalEdgeStyle;rounded=0;orthogonalLoop=1;jettySize=auto;html=1;" edge="1" parent="WIyWlLk6GJQsqaUBKTNV-1" source="81BaxAbJWOzeDU-zqKsr-4" target="81BaxAbJWOzeDU-zqKsr-20">
          <mxGeometry relative="1" as="geometry" />
        </mxCell>
        <mxCell id="81BaxAbJWOzeDU-zqKsr-48" value="true" style="edgeLabel;html=1;align=center;verticalAlign=middle;resizable=0;points=[];" vertex="1" connectable="0" parent="81BaxAbJWOzeDU-zqKsr-22">
          <mxGeometry x="-0.1044" y="-1" relative="1" as="geometry">
            <mxPoint as="offset" />
          </mxGeometry>
        </mxCell>
        <mxCell id="81BaxAbJWOzeDU-zqKsr-4" value="apakah pengguna&amp;nbsp;&lt;div&gt;memilih 1?&lt;/div&gt;" style="rhombus;whiteSpace=wrap;html=1;" vertex="1" parent="WIyWlLk6GJQsqaUBKTNV-1">
          <mxGeometry x="1223" y="1290" width="140" height="140" as="geometry" />
        </mxCell>
        <mxCell id="81BaxAbJWOzeDU-zqKsr-8" value="" style="group" vertex="1" connectable="0" parent="WIyWlLk6GJQsqaUBKTNV-1">
          <mxGeometry x="1220" y="1150" width="233" height="80" as="geometry" />
        </mxCell>
        <mxCell id="81BaxAbJWOzeDU-zqKsr-9" value="" style="group" vertex="1" connectable="0" parent="81BaxAbJWOzeDU-zqKsr-8">
          <mxGeometry x="-19.910973748473747" y="30" width="224.67857142857142" height="80" as="geometry" />
        </mxCell>
        <mxCell id="81BaxAbJWOzeDU-zqKsr-10" value="Print pilihan menu 1 untuk menghapus salah satu&amp;nbsp;&lt;div&gt;koleksi&amp;nbsp;&lt;div&gt;dan pilihan 2 untuk&amp;nbsp;&lt;div&gt;menghapus semua koleksi&lt;/div&gt;&lt;/div&gt;&lt;/div&gt;" style="shape=parallelogram;perimeter=parallelogramPerimeter;whiteSpace=wrap;html=1;fixedSize=1;" vertex="1" parent="81BaxAbJWOzeDU-zqKsr-9">
          <mxGeometry width="187.23214285714286" height="80" as="geometry" />
        </mxCell>
        <mxCell id="81BaxAbJWOzeDU-zqKsr-11" value="" style="endArrow=classic;html=1;rounded=0;exitX=0.9;exitY=1;exitDx=0;exitDy=0;exitPerimeter=0;" edge="1" parent="81BaxAbJWOzeDU-zqKsr-9" source="81BaxAbJWOzeDU-zqKsr-10">
          <mxGeometry width="50" height="50" relative="1" as="geometry">
            <mxPoint x="79.05357142857143" y="160" as="sourcePoint" />
            <mxPoint x="224.67857142857142" y="80" as="targetPoint" />
          </mxGeometry>
        </mxCell>
        <mxCell id="81BaxAbJWOzeDU-zqKsr-12" value="Menghapus Semua Data Berdasarkan Indeks Inputan Pengguna menggunakan fungsi hapus_semua_koleksi" style="rounded=0;whiteSpace=wrap;html=1;" vertex="1" parent="WIyWlLk6GJQsqaUBKTNV-1">
          <mxGeometry x="1463" y="1440" width="140" height="80" as="geometry" />
        </mxCell>
        <mxCell id="81BaxAbJWOzeDU-zqKsr-15" value="" style="edgeStyle=orthogonalEdgeStyle;rounded=0;orthogonalLoop=1;jettySize=auto;html=1;" edge="1" parent="WIyWlLk6GJQsqaUBKTNV-1" source="81BaxAbJWOzeDU-zqKsr-10" target="81BaxAbJWOzeDU-zqKsr-4">
          <mxGeometry relative="1" as="geometry" />
        </mxCell>
        <mxCell id="81BaxAbJWOzeDU-zqKsr-18" value="" style="group" vertex="1" connectable="0" parent="WIyWlLk6GJQsqaUBKTNV-1">
          <mxGeometry x="1220" y="1460" width="233" height="80" as="geometry" />
        </mxCell>
        <mxCell id="81BaxAbJWOzeDU-zqKsr-19" value="" style="group" vertex="1" connectable="0" parent="81BaxAbJWOzeDU-zqKsr-18">
          <mxGeometry x="-19.910973748473747" y="20" width="224.67857142857142" height="80" as="geometry" />
        </mxCell>
        <mxCell id="81BaxAbJWOzeDU-zqKsr-20" value="Pengguna menginput&amp;nbsp;&lt;div&gt;Nomor urut berapa&amp;nbsp;&lt;/div&gt;&lt;div&gt;Koleksi yang ingin&lt;/div&gt;&lt;div&gt;&amp;nbsp;dihapus&lt;/div&gt;" style="shape=parallelogram;perimeter=parallelogramPerimeter;whiteSpace=wrap;html=1;fixedSize=1;" vertex="1" parent="81BaxAbJWOzeDU-zqKsr-19">
          <mxGeometry width="187.23214285714286" height="80" as="geometry" />
        </mxCell>
        <mxCell id="81BaxAbJWOzeDU-zqKsr-21" value="" style="endArrow=classic;html=1;rounded=0;exitX=0.9;exitY=1;exitDx=0;exitDy=0;exitPerimeter=0;" edge="1" parent="81BaxAbJWOzeDU-zqKsr-19" source="81BaxAbJWOzeDU-zqKsr-20">
          <mxGeometry width="50" height="50" relative="1" as="geometry">
            <mxPoint x="79.05357142857143" y="160" as="sourcePoint" />
            <mxPoint x="224.67857142857142" y="80" as="targetPoint" />
          </mxGeometry>
        </mxCell>
        <mxCell id="81BaxAbJWOzeDU-zqKsr-24" value="" style="endArrow=classic;html=1;rounded=0;entryX=0.5;entryY=0;entryDx=0;entryDy=0;exitX=0.5;exitY=1;exitDx=0;exitDy=0;" edge="1" parent="WIyWlLk6GJQsqaUBKTNV-1" source="81BaxAbJWOzeDU-zqKsr-20" target="TQMWpj2GuU2XblvTJpzS-81">
          <mxGeometry width="50" height="50" relative="1" as="geometry">
            <mxPoint x="1293" y="1570" as="sourcePoint" />
            <mxPoint x="1343" y="1530" as="targetPoint" />
          </mxGeometry>
        </mxCell>
        <mxCell id="81BaxAbJWOzeDU-zqKsr-25" value="" style="endArrow=none;html=1;rounded=0;exitX=1;exitY=0.5;exitDx=0;exitDy=0;" edge="1" parent="WIyWlLk6GJQsqaUBKTNV-1" source="81BaxAbJWOzeDU-zqKsr-4">
          <mxGeometry width="50" height="50" relative="1" as="geometry">
            <mxPoint x="1293" y="1380" as="sourcePoint" />
            <mxPoint x="1533" y="1360" as="targetPoint" />
          </mxGeometry>
        </mxCell>
        <mxCell id="81BaxAbJWOzeDU-zqKsr-47" value="false" style="edgeLabel;html=1;align=center;verticalAlign=middle;resizable=0;points=[];" vertex="1" connectable="0" parent="81BaxAbJWOzeDU-zqKsr-25">
          <mxGeometry x="-0.637" relative="1" as="geometry">
            <mxPoint x="-1" as="offset" />
          </mxGeometry>
        </mxCell>
        <mxCell id="81BaxAbJWOzeDU-zqKsr-27" value="" style="endArrow=classic;html=1;rounded=0;entryX=0.5;entryY=0;entryDx=0;entryDy=0;" edge="1" parent="WIyWlLk6GJQsqaUBKTNV-1" target="81BaxAbJWOzeDU-zqKsr-12">
          <mxGeometry width="50" height="50" relative="1" as="geometry">
            <mxPoint x="1533" y="1360" as="sourcePoint" />
            <mxPoint x="1343" y="1330" as="targetPoint" />
          </mxGeometry>
        </mxCell>
        <mxCell id="81BaxAbJWOzeDU-zqKsr-29" value="" style="endArrow=classic;html=1;rounded=0;exitX=0.5;exitY=1;exitDx=0;exitDy=0;" edge="1" parent="WIyWlLk6GJQsqaUBKTNV-1" source="TQMWpj2GuU2XblvTJpzS-81">
          <mxGeometry width="50" height="50" relative="1" as="geometry">
            <mxPoint x="1213" y="1580" as="sourcePoint" />
            <mxPoint x="1293" y="1760" as="targetPoint" />
          </mxGeometry>
        </mxCell>
        <mxCell id="81BaxAbJWOzeDU-zqKsr-30" value="" style="endArrow=classic;html=1;rounded=0;exitX=0.5;exitY=1;exitDx=0;exitDy=0;" edge="1" parent="WIyWlLk6GJQsqaUBKTNV-1" source="81BaxAbJWOzeDU-zqKsr-12">
          <mxGeometry width="50" height="50" relative="1" as="geometry">
            <mxPoint x="1213" y="1580" as="sourcePoint" />
            <mxPoint x="1533" y="1760" as="targetPoint" />
          </mxGeometry>
        </mxCell>
        <mxCell id="81BaxAbJWOzeDU-zqKsr-41" value="" style="endArrow=none;html=1;rounded=0;" edge="1" parent="WIyWlLk6GJQsqaUBKTNV-1">
          <mxGeometry width="50" height="50" relative="1" as="geometry">
            <mxPoint x="2240" y="1840" as="sourcePoint" />
            <mxPoint x="960" y="1840" as="targetPoint" />
          </mxGeometry>
        </mxCell>
        <mxCell id="TQMWpj2GuU2XblvTJpzS-138" value="END" style="ellipse;whiteSpace=wrap;html=1;" parent="WIyWlLk6GJQsqaUBKTNV-1" vertex="1">
          <mxGeometry x="901" y="1920" width="120" height="80" as="geometry" />
        </mxCell>
        <mxCell id="TQMWpj2GuU2XblvTJpzS-141" value="" style="endArrow=classic;html=1;rounded=0;entryX=0.5;entryY=0;entryDx=0;entryDy=0;" parent="WIyWlLk6GJQsqaUBKTNV-1" target="TQMWpj2GuU2XblvTJpzS-138" edge="1">
          <mxGeometry width="50" height="50" relative="1" as="geometry">
            <mxPoint x="960" y="1840" as="sourcePoint" />
            <mxPoint x="1346" y="1850" as="targetPoint" />
          </mxGeometry>
        </mxCell>
        <mxCell id="81BaxAbJWOzeDU-zqKsr-43" value="" style="endArrow=none;html=1;rounded=0;entryX=0.365;entryY=-0.044;entryDx=0;entryDy=0;entryPerimeter=0;" edge="1" parent="WIyWlLk6GJQsqaUBKTNV-1" target="81BaxAbJWOzeDU-zqKsr-42">
          <mxGeometry width="50" height="50" relative="1" as="geometry">
            <mxPoint x="2320" y="1280" as="sourcePoint" />
            <mxPoint x="2280" y="1280" as="targetPoint" />
          </mxGeometry>
        </mxCell>
        <mxCell id="81BaxAbJWOzeDU-zqKsr-45" value="" style="endArrow=none;html=1;rounded=0;entryX=1;entryY=0.5;entryDx=0;entryDy=0;entryPerimeter=0;" edge="1" parent="WIyWlLk6GJQsqaUBKTNV-1" target="81BaxAbJWOzeDU-zqKsr-42">
          <mxGeometry width="50" height="50" relative="1" as="geometry">
            <mxPoint x="2240" y="30" as="sourcePoint" />
            <mxPoint x="2240" y="1840" as="targetPoint" />
          </mxGeometry>
        </mxCell>
        <mxCell id="81BaxAbJWOzeDU-zqKsr-42" value="" style="shape=requiredInterface;html=1;verticalLabelPosition=bottom;sketch=0;rotation=90;" vertex="1" parent="WIyWlLk6GJQsqaUBKTNV-1">
          <mxGeometry x="2235" y="1255" width="10" height="50" as="geometry" />
        </mxCell>
      </root>
    </mxGraphModel>
  </diagram>
</mxfile>
